<?xml version="1.0" encoding="UTF-8" standalone="no"?>
<svg
   xmlns:dc="http://purl.org/dc/elements/1.1/"
   xmlns:cc="http://creativecommons.org/ns#"
   xmlns:rdf="http://www.w3.org/1999/02/22-rdf-syntax-ns#"
   xmlns:svg="http://www.w3.org/2000/svg"
   xmlns="http://www.w3.org/2000/svg"
   viewBox="0 0 682.66669 375.30667"
   height="375.30667"
   width="682.66669"
   xml:space="preserve"
   id="svg2"
   version="1.1"><metadata
     id="metadata8"><rdf:RDF><cc:Work
         rdf:about=""><dc:format>image/svg+xml</dc:format><dc:type
           rdf:resource="http://purl.org/dc/dcmitype/StillImage" /></cc:Work></rdf:RDF></metadata><defs
     id="defs6" /><g
     transform="matrix(1.3333333,0,0,-1.3333333,0,375.30667)"
     id="g10"><g
       transform="scale(0.1)"
       id="g12"><path
         id="path14"
         style="fill:#c4c4cd;fill-opacity:1;fill-rule:nonzero;stroke:none"
         d="m 58.6289,402.539 h 5002.74 v 2353.63 H 58.6289 Z" /><path
         id="path16"
         style="fill:#4db98c;fill-opacity:1;fill-rule:nonzero;stroke:none"
         d="m 349.219,675.43 h 2691.83 V 2483.32 H 349.219 Z" /><path
         id="path18"
         style="fill:#89d6b4;fill-opacity:1;fill-rule:nonzero;stroke:none"
         d="m 380.391,1061.45 c 0.078,0.01 1.179,-0.03 3.593,-1.38 3.575,-1.95 9.2,-6.78 15.161,-13.4 6.015,-6.59 12.511,-14.82 19.253,-23.3 v -0.01 c 7.403,-9.27 15.032,-17.88 23.903,-24.919 4.457,-3.5 9.265,-6.632 14.738,-9.019 5.441,-2.371 11.656,-3.973 18.285,-3.961 7.965,-0.051 16.172,2.461 23.031,6.828 l 0.012,0.012 c 7.336,4.668 12.914,10.509 18.192,16.839 7.828,9.52 14.8,20.44 21.605,31.18 6.758,10.71 13.309,21.23 19.285,29.29 h 0.004 c 3.621,4.93 6.926,8.17 9,9.63 1.027,0.75 1.715,1.06 1.961,1.15 l 0.109,0.03 -0.398,1.42 v -1.45 l 0.398,0.03 -0.398,1.42 v -1.45 2.49 l -0.48,-2.45 0.48,-0.04 v 2.49 l -0.48,-2.45 0.226,1.15 -0.41,-1.1 0.184,-0.05 0.226,1.15 -0.41,-1.1 c 0.012,0.01 1.062,-0.41 2.973,-2.38 1.902,-1.92 4.484,-5.29 7.3,-10.17 3.746,-6.46 7.993,-15.59 12.289,-25.85 6.485,-15.42 13.18,-33.4 20.055,-50.189 3.445,-8.411 6.938,-16.539 10.578,-24.039 3.657,-7.512 7.399,-14.383 11.762,-20.532 l 0.004,-0.011 c 2.957,-4.11 6.246,-7.95 10.797,-11.309 4.457,-3.309 10.812,-6.219 18.133,-6.211 5.886,-0.039 11.609,1.981 15.878,4.762 7.551,4.969 11.844,11.269 15.809,18.398 5.789,10.789 10.488,24.492 15.242,42.832 4.707,18.309 9.282,41.149 13.84,69.359 9.063,56.2 18.016,133.39 26.984,222.11 8.961,88.7 17.911,188.83 26.86,290.41 8.937,101.56 17.875,201.51 26.801,289.84 8.922,88.32 17.855,165.09 26.675,219.82 6.704,41.74 13.493,70.62 19.586,87.49 2.969,8.39 5.918,13.73 7.34,15.5 l 0.574,0.68 -1.984,2.05 1.656,-2.31 0.328,0.26 -1.984,2.05 1.656,-2.31 -5.902,8.22 v -9.93 c 2.793,-0.05 5.266,1.18 5.902,1.71 l -5.902,8.22 v -9.93 9 l -5.477,-7.49 c 0.243,-0.23 2.375,-1.52 5.477,-1.51 v 9 l -5.477,-7.49 0.965,1.32 -1.031,-1.26 0.066,-0.06 0.965,1.32 -1.031,-1.26 c 0.012,0 0.812,-0.74 1.914,-2.3 l 0.004,-0.01 c 3.137,-4.33 7.289,-12.1 11.461,-21.4 6.328,-14.01 12.984,-31.57 19.762,-48.68 6.832,-17.18 13.644,-33.81 21.394,-47.31 5.305,-9.13 10.961,-16.63 18.106,-22.53 3.57,-2.93 7.566,-5.42 12.004,-7.19 4.425,-1.77 9.296,-2.74 14.117,-2.74 9.718,0 18.324,3.8 25.078,8.71 6.844,4.97 12.453,11.16 17.746,18.26 9.887,13.37 18.896,28.82 27.496,41.9 4.26,6.52 8.4,12.41 12.12,16.9 3.67,4.51 7.04,7.52 8.66,8.49 1.41,0.83 1.45,0.66 1.74,0.71 0.24,-0.01 0.89,-0.04 2.33,-0.65 2.11,-0.89 5.69,-3.25 9.77,-7.11 4.1,-3.84 8.71,-9.05 13.49,-15.07 h 0.01 c 8.92,-11.18 18.16,-23.12 28.62,-33.21 5.27,-5.05 10.87,-9.69 17.45,-13.42 6.53,-3.69 14.36,-6.55 23.22,-6.56 h 0.02 c 8.73,0 16.44,2.71 22.92,6.21 9.75,5.33 17.53,12.5 24.93,20.02 7.35,7.53 14.2,15.56 20.72,22.83 6.2,6.97 12.11,12.37 16.88,15.51 4.85,3.22 8.02,3.94 9.65,3.91 1.03,-0.02 1.86,-0.15 3.4,-0.88 2,-0.96 5.21,-3.19 8.83,-6.48 5.47,-4.93 11.83,-12.08 18.51,-19.71 6.73,-7.63 13.77,-15.75 21.69,-22.99 l -0.01,0.01 c 5.66,-5.15 11.74,-9.47 18.48,-12.59 6.72,-3.12 14.18,-4.97 21.79,-4.96 7.63,-0.01 15.21,1.86 22.03,5.13 6.85,3.27 13.02,7.83 18.72,13.32 10.73,10.43 19.86,22.92 28.57,33.75 4.32,5.4 8.46,10.36 12.21,14.25 3.72,3.9 7.09,6.65 9.18,7.85 l 0.01,0.01 c 1.43,0.8 1.66,0.69 1.94,0.73 0.24,-0.01 0.78,-0.02 2.1,-0.61 1.94,-0.84 5.39,-3.21 9.39,-7.44 4.02,-4.2 8.58,-10.11 13.29,-17.34 h 0.01 c 8.58,-13.1 17.59,-28.72 27.55,-42.13 5.04,-6.73 10.29,-12.98 16.81,-18.33 3.27,-2.66 6.91,-5.12 11.22,-7.04 4.28,-1.91 9.34,-3.26 14.8,-3.26 h 0.03 0.09 l -0.06,16.06 v -16.06 h 0.06 l -0.06,16.06 v -16.06 c 5.92,-0.01 11.42,1.67 15.9,4.01 7.89,4.18 13.33,9.91 18.33,16.25 7.39,9.56 13.65,21.11 19.89,34.23 6.18,13.1 12.18,27.72 18.13,42.9 v -0.01 c 6.69,17.11 13.35,33.62 19.27,44.61 2.89,5.47 5.7,9.51 7.18,11.06 l 0.7,0.69 0.03,0.02 -3.46,4.65 2.08,-5.36 c 0.9,0.35 1.32,0.67 1.38,0.71 l -3.46,4.65 2.08,-5.36 -3.91,10.08 v -10.78 c 1.6,0 3.02,0.35 3.91,0.7 l -3.91,10.08 v -10.78 11.4 l -4.38,-10.54 c 1.16,-0.5 2.81,-0.87 4.38,-0.86 v 11.4 l -4.38,-10.54 3.25,7.82 -5.08,-6.8 1.83,-1.02 3.25,7.82 -5.08,-6.8 1.98,2.64 -2.36,-2.34 0.38,-0.3 1.98,2.64 -2.36,-2.34 c 0.02,0.01 0.96,-1.05 2.16,-3.3 v 0 c 1.41,-2.59 3.34,-7.11 5.32,-13.09 3.51,-10.5 7.31,-25.48 11.11,-44.2 11.48,-56.3 23.23,-146.26 34.92,-262.16 17.86,-176.78 35.75,-405.48 53.66,-583.04 8.97,-88.86 17.94,-162.58 26.99,-218.68 4.53,-28.05 9.07,-51.7 13.73,-70.839 2.34,-9.57 4.7,-18.019 7.17,-25.441 2.48,-7.43 5.03,-13.789 8.07,-19.469 v 0.008 c 2.96,-5.449 6.25,-10.289 11.1,-14.539 2.43,-2.098 5.31,-4.032 8.69,-5.442 3.35,-1.418 7.21,-2.226 10.99,-2.218 5.86,-0.008 11.12,1.871 15.09,4.191 6.99,4.18 11.22,9.328 15.16,14.758 5.76,8.203 10.49,17.722 15.21,28.23 4.68,10.492 9.2,21.903 13.65,33.251 8.79,22.49 17.59,43.07 25.53,56.73 3.9,6.81 7.67,11.83 10.08,14.13 l 1.43,1.25 0.48,0.33 0.02,0.01 -2.46,4.83 0.01,-5.29 c 1.41,-0.01 2.42,0.43 2.45,0.46 l -2.46,4.83 0.01,-5.29 h -0.05 v 5.07 l -1.14,-4.95 1.14,-0.12 v 5.07 l -1.14,-4.95 0.61,2.62 -0.85,-2.55 0.24,-0.07 0.61,2.62 -0.85,-2.55 0.11,0.33 -0.14,-0.32 0.03,-0.01 0.11,0.33 -0.14,-0.32 c 0.2,-0.02 2.46,-1.38 5.26,-4.36 4.29,-4.4 9.75,-11.92 15.35,-20.56 5.65,-8.66 11.55,-18.46 17.73,-27.92 l -0.01,0.01 c 7.58,-11.56 15.35,-21.51 24.46,-29.4 4.57,-3.93 9.53,-7.359 15.16,-9.922 5.61,-2.558 11.98,-4.199 18.65,-4.187 7.81,-0.031 15.66,2.328 22.31,6.301 l -0.02,-0.012 c 6.87,4.082 12.44,9.14 17.67,14.53 7.79,8.1 14.75,17.15 21.43,25.59 6.62,8.43 12.97,16.26 18.31,21.38 3.25,3.14 6.03,5 8.13,5.99 2.12,1 3.49,1.23 4.82,1.24 1.33,-0.01 2.8,-0.26 5.03,-1.27 2.19,-1 5.05,-2.85 8.33,-5.84 7.37,-6.66 16.12,-17.16 25.42,-27.55 4.69,-5.21 9.56,-10.41 14.87,-15.22 5.32,-4.79 11.05,-9.27 17.99,-12.721 6.61,-3.289 13.96,-5.028 21.08,-5.008 12.2,0.027 22.83,4.648 31.79,10.619 9.04,6.03 16.94,13.67 24.54,22.13 9.16,10.28 17.87,20.47 25.35,27.21 3.71,3.37 7.07,5.82 9.5,7.11 2.47,1.34 3.7,1.44 3.93,1.43 h -0.02 c 0.08,0 1.18,-0.04 3.59,-1.39 3.58,-1.95 9.21,-6.78 15.17,-13.4 6.01,-6.59 12.51,-14.82 19.25,-23.3 7.4,-9.28 15.02,-17.89 23.9,-24.929 4.45,-3.5 9.26,-6.632 14.73,-9.019 5.45,-2.371 11.66,-3.973 18.29,-3.961 7.96,-0.051 16.17,2.461 23.03,6.828 l 0.01,0.012 c 7.34,4.668 12.92,10.509 18.2,16.839 7.83,9.52 14.8,20.44 21.61,31.17 6.76,10.72 13.31,21.25 19.28,29.3 l 0.01,0.01 c 3.62,4.92 6.92,8.17 8.99,9.62 1.03,0.75 1.71,1.06 1.96,1.15 l 0.11,0.03 -0.4,1.42 v -1.45 l 0.4,0.03 -0.4,1.42 v -1.45 2.49 l -0.48,-2.45 0.48,-0.04 v 2.49 l -0.48,-2.45 0.23,1.15 -0.41,-1.1 0.18,-0.05 0.23,1.15 -0.41,-1.1 c 0.01,0.01 1.06,-0.41 2.97,-2.38 1.9,-1.92 4.49,-5.28 7.3,-10.17 3.75,-6.46 7.99,-15.59 12.29,-25.85 6.49,-15.42 13.19,-33.4 20.06,-50.201 3.45,-8.399 6.94,-16.527 10.58,-24.027 3.66,-7.512 7.4,-14.383 11.76,-20.532 2.96,-4.121 6.25,-7.961 10.8,-11.32 4.45,-3.309 10.81,-6.219 18.13,-6.211 5.89,-0.039 11.61,1.981 15.88,4.762 7.55,4.969 11.84,11.258 15.81,18.398 5.79,10.789 10.49,24.492 15.24,42.832 4.71,18.309 9.28,41.149 13.84,69.359 9.06,56.2 18.02,133.39 26.98,222.11 8.97,88.7 17.91,188.83 26.86,290.41 8.94,101.56 17.88,201.51 26.81,289.84 8.92,88.32 17.86,165.09 26.68,219.82 6.7,41.75 13.49,70.62 19.58,87.49 2.97,8.39 5.92,13.73 7.34,15.5 l 0.57,0.68 -1.98,2.05 1.66,-2.31 0.32,0.26 -1.98,2.05 1.66,-2.31 -5.91,8.22 v -9.93 c 2.8,-0.05 5.27,1.18 5.91,1.71 l -5.91,8.22 v -9.93 9 l -5.47,-7.49 c 0.24,-0.23 2.37,-1.52 5.47,-1.51 v 9 l -5.47,-7.49 0.96,1.32 -1.03,-1.27 0.07,-0.05 0.96,1.32 -1.03,-1.27 c 0.01,0.01 0.81,-0.73 1.91,-2.29 l 0.01,-0.01 c 3.14,-4.33 7.29,-12.1 11.46,-21.4 6.33,-14 12.98,-31.56 19.76,-48.68 6.83,-17.18 13.64,-33.81 21.39,-47.31 5.31,-9.13 10.96,-16.63 18.1,-22.53 3.58,-2.92 7.57,-5.42 12.01,-7.19 4.42,-1.77 9.3,-2.74 14.12,-2.74 9.71,0 18.32,3.8 25.07,8.71 6.85,4.96 12.46,11.15 17.76,18.25 v 0.01 c 9.88,13.37 18.89,28.81 27.49,41.9 4.27,6.52 8.41,12.41 12.12,16.91 3.68,4.51 7.05,7.52 8.68,8.49 l -0.02,-0.01 c 1.41,0.83 1.45,0.66 1.73,0.71 0.24,-0.01 0.9,-0.04 2.33,-0.65 2.11,-0.89 5.7,-3.25 9.78,-7.11 4.1,-3.84 8.71,-9.05 13.5,-15.07 v -0.01 c 8.93,-11.17 18.17,-23.11 28.62,-33.2 5.26,-5.05 10.87,-9.69 17.44,-13.42 6.53,-3.69 14.37,-6.55 23.22,-6.56 l 0.06,40 c -0.09,-0.02 -1.2,0.03 -3.61,1.39 -3.59,1.95 -9.21,6.79 -15.17,13.4 -6.02,6.6 -12.52,14.82 -19.26,23.3 v 0 c -7.39,9.26 -15.01,17.87 -23.88,24.92 -4.45,3.5 -9.26,6.64 -14.73,9.03 -5.44,2.38 -11.66,3.98 -18.3,3.98 -7.98,0.05 -16.22,-2.49 -23.08,-6.88 l -0.01,-0.01 c -7.31,-4.68 -12.88,-10.52 -18.16,-16.85 -7.82,-9.52 -14.79,-20.43 -21.6,-31.17 -6.76,-10.7 -13.3,-21.22 -19.28,-29.27 l 0.01,0.01 c -3.63,-4.93 -6.95,-8.18 -9.03,-9.64 -1.03,-0.75 -1.72,-1.06 -1.97,-1.15 l -0.11,-0.04 0.4,-1.42 v 1.45 l -0.4,-0.03 0.4,-1.42 v 1.45 -2.5 l 0.48,2.46 -0.48,0.04 v -2.5 l 0.48,2.46 -0.23,-1.17 0.42,1.12 -0.19,0.05 -0.23,-1.17 0.42,1.12 -0.75,0.44 c -1.54,0.97 -5.3,4.73 -9.51,12.11 -3.74,6.47 -7.99,15.62 -12.29,25.89 -6.49,15.44 -13.18,33.43 -20.06,50.22 -3.44,8.41 -6.94,16.53 -10.58,24.02 -3.66,7.51 -7.4,14.37 -11.78,20.52 l 0.01,-0.01 c -2.96,4.11 -6.25,7.94 -10.81,11.3 -4.45,3.3 -10.8,6.21 -18.12,6.19 -5.87,0.04 -11.59,-1.97 -15.86,-4.74 -7.55,-4.96 -11.85,-11.25 -15.82,-18.39 -5.79,-10.78 -10.49,-24.47 -15.24,-42.81 -4.7,-18.3 -9.27,-41.15 -13.83,-69.4 -9.06,-56.26 -18.02,-133.45 -26.99,-222.15 -8.96,-88.68 -17.91,-188.76 -26.86,-290.36 -8.94,-101.55 -17.88,-201.54 -26.8,-289.9 -8.92,-88.33 -17.85,-165.11 -26.68,-219.75 -6.7,-41.71 -13.49,-70.59 -19.59,-87.469 -2.97,-8.41 -5.92,-13.762 -7.35,-15.539 l -0.58,-0.692 1.97,-2.019 -1.65,2.281 -0.32,-0.262 1.97,-2.019 -1.65,2.281 5.92,-8.223 v 9.93 c -2.81,0.051 -5.28,-1.18 -5.92,-1.707 l 5.92,-8.223 v 9.93 -9.019 l 5.49,7.5 c -0.24,0.23 -2.39,1.539 -5.49,1.519 v -9.019 l 5.49,7.5 -0.99,-1.34 1.07,1.289 -0.08,0.051 -0.99,-1.34 1.07,1.289 -0.54,0.543 -1.37,1.758 c -3.15,4.371 -7.3,12.152 -11.48,21.468 -6.33,14.032 -12.99,31.582 -19.77,48.692 -6.83,17.17 -13.64,33.79 -21.4,47.27 -5.31,9.12 -10.96,16.62 -18.11,22.51 -3.57,2.93 -7.57,5.42 -12.01,7.19 -4.42,1.77 -9.29,2.75 -14.12,2.74 -9.7,0 -18.31,-3.79 -25.07,-8.7 -6.84,-4.97 -12.45,-11.16 -17.74,-18.28 v 0.01 c -9.88,-13.38 -18.89,-28.84 -27.49,-41.92 -4.26,-6.52 -8.4,-12.41 -12.11,-16.89 -3.67,-4.51 -7.03,-7.5 -8.64,-8.45 l 0.02,0.01 c -1.41,-0.82 -1.47,-0.66 -1.77,-0.71 -0.25,0 -0.92,0.04 -2.35,0.65 -2.12,0.88 -5.69,3.24 -9.77,7.09 -4.1,3.83 -8.71,9.04 -13.49,15.06 -8.93,11.19 -18.17,23.13 -28.63,33.23 -5.26,5.04 -10.87,9.69 -17.45,13.42 -6.54,3.69 -14.38,6.54 -23.24,6.55 h -0.02 c -8.72,-0.02 -16.43,-2.73 -22.9,-6.23 -9.75,-5.33 -17.52,-12.49 -24.92,-20.01 -7.35,-7.53 -14.2,-15.55 -20.72,-22.83 -6.21,-6.96 -12.12,-12.37 -16.9,-15.51 -4.84,-3.23 -8.01,-3.94 -9.63,-3.91 -1.02,0.02 -1.84,0.14 -3.38,0.87 -2.01,0.97 -5.23,3.21 -8.85,6.51 -5.48,4.93 -11.84,12.08 -18.52,19.71 -6.73,7.64 -13.77,15.75 -21.69,22.98 -5.66,5.15 -11.74,9.46 -18.49,12.58 -6.71,3.12 -14.17,4.96 -21.79,4.95 -7.62,0.02 -15.19,-1.85 -22.02,-5.12 -6.85,-3.27 -13.02,-7.84 -18.72,-13.34 -10.73,-10.44 -19.85,-22.92 -28.56,-33.76 -4.31,-5.4 -8.45,-10.35 -12.19,-14.23 -3.72,-3.89 -7.09,-6.63 -9.16,-7.81 l -0.03,-0.02 c -1.44,-0.8 -1.68,-0.7 -1.97,-0.74 -0.25,0.01 -0.8,0.02 -2.11,0.61 -1.94,0.84 -5.38,3.21 -9.38,7.43 -4.01,4.18 -8.57,10.09 -13.28,17.33 v 0.01 c -8.59,13.1 -17.59,28.72 -27.55,42.14 -5.05,6.72 -10.3,12.98 -16.82,18.34 -3.28,2.66 -6.92,5.12 -11.23,7.04 -4.29,1.91 -9.36,3.25 -14.82,3.24 h -0.04 c -5.91,0 -11.4,-1.68 -15.87,-4.02 -7.88,-4.18 -13.33,-9.91 -18.32,-16.25 -7.39,-9.56 -13.66,-21.1 -19.9,-34.22 -6.19,-13.1 -12.2,-27.72 -18.15,-42.9 -6.69,-17.11 -13.35,-33.64 -19.27,-44.652 -2.89,-5.476 -5.7,-9.527 -7.19,-11.089 l -0.7,-0.688 -0.02,-0.019 3.47,-4.661 -2.09,5.368 c -0.91,-0.348 -1.32,-0.668 -1.38,-0.707 l 3.47,-4.661 -2.09,5.368 3.93,-10.098 v 10.809 c -1.61,0 -3.04,-0.348 -3.93,-0.711 l 3.93,-10.098 v 10.809 -11.43 l 4.41,10.558 c -1.17,0.5 -2.83,0.883 -4.41,0.872 v -11.43 l 4.41,10.558 -3.27,-7.808 5.1,6.789 -1.83,1.019 -3.27,-7.808 5.1,6.789 -1.96,-2.617 2.34,2.308 -0.38,0.309 -1.96,-2.617 2.34,2.308 c -0.02,-0.011 -0.97,1.078 -2.18,3.36 l -0.01,0.011 c -1.42,2.618 -3.35,7.149 -5.33,13.141 -3.52,10.508 -7.31,25.488 -11.12,44.208 -11.48,56.26 -23.23,146.15 -34.92,262.12 -17.85,176.87 -35.74,405.57 -53.66,583.04 -8.97,88.8 -17.94,162.56 -26.99,218.68 -4.53,28.07 -9.07,51.73 -13.73,70.87 -2.33,9.58 -4.69,18.03 -7.16,25.45 -2.49,7.42 -5.03,13.78 -8.09,19.46 v 0 c -2.97,5.42 -6.26,10.24 -11.12,14.48 -2.43,2.09 -5.3,4.01 -8.67,5.41 -3.35,1.4 -7.19,2.21 -10.96,2.2 -5.85,0.01 -11.1,-1.86 -15.07,-4.18 -7,-4.17 -11.23,-9.3 -15.17,-14.73 -5.77,-8.2 -10.51,-17.7 -15.23,-28.21 -4.69,-10.48 -9.21,-21.89 -13.66,-33.25 h -0.01 c -8.78,-22.48 -17.57,-43.08 -25.5,-56.74 -3.9,-6.82 -7.67,-11.83 -10.08,-14.13 l -1.42,-1.25 -0.47,-0.32 -0.02,-0.01 2.49,-4.88 v 5.35 c -1.42,0.01 -2.45,-0.44 -2.49,-0.47 l 2.49,-4.88 v 5.35 h -0.09 l 0.06,-16.14 v 16.14 h -0.06 l 0.06,-16.14 v 16.14 h 0.03 l -0.01,-5.04 1.14,4.92 -1.13,0.12 -0.01,-5.04 1.14,4.92 -0.59,-2.58 0.84,2.51 -0.25,0.07 -0.59,-2.58 0.84,2.51 -0.1,-0.29 0.12,0.28 -0.02,0.01 -0.1,-0.29 0.12,0.28 c -0.21,0.03 -2.47,1.39 -5.28,4.37 -4.29,4.41 -9.75,11.92 -15.35,20.56 -5.65,8.66 -11.55,18.45 -17.72,27.9 v 0 c -7.58,11.55 -15.35,21.51 -24.46,29.4 -4.57,3.93 -9.53,7.36 -15.16,9.93 -5.61,2.55 -11.99,4.2 -18.66,4.19 -7.81,0.04 -15.67,-2.33 -22.32,-6.32 l 0.01,0.01 c -6.86,-4.09 -12.42,-9.15 -17.65,-14.54 -7.77,-8.11 -14.74,-17.15 -21.41,-25.59 -6.62,-8.43 -12.97,-16.24 -18.31,-21.36 -3.25,-3.14 -6.04,-5 -8.14,-6 -2.13,-0.99 -3.51,-1.22 -4.84,-1.24 -1.32,0.02 -2.79,0.26 -5,1.27 -2.19,1.01 -5.04,2.85 -8.32,5.84 v 0.01 c -7.38,6.66 -16.14,17.17 -25.44,27.56 -4.68,5.21 -9.56,10.41 -14.86,15.22 -5.33,4.79 -11.06,9.27 -18,12.71 -6.62,3.28 -13.95,5.01 -21.07,4.99 -12.19,-0.03 -22.83,-4.64 -31.79,-10.6 -9.04,-6.03 -16.94,-13.67 -24.55,-22.14 -9.16,-10.28 -17.87,-20.48 -25.36,-27.22 -3.7,-3.37 -7.06,-5.82 -9.48,-7.11 -2.47,-1.33 -3.69,-1.43 -3.92,-1.41 h 0.03 c -0.09,-0.02 -1.2,0.03 -3.61,1.39 -3.59,1.95 -9.22,6.79 -15.18,13.41 -6.01,6.59 -12.51,14.81 -19.25,23.29 v -0.01 c -7.39,9.27 -15.01,17.88 -23.87,24.92 -4.45,3.51 -9.26,6.65 -14.73,9.04 -5.45,2.38 -11.67,3.98 -18.3,3.98 -7.99,0.05 -16.23,-2.49 -23.09,-6.89 -7.32,-4.68 -12.9,-10.52 -18.172,-16.85 -7.82,-9.52 -14.797,-20.43 -21.602,-31.17 -6.758,-10.7 -13.304,-21.22 -19.281,-29.27 -3.625,-4.92 -6.934,-8.17 -9.012,-9.63 -1.031,-0.75 -1.718,-1.06 -1.968,-1.15 l -0.114,-0.04 0.399,-1.42 v 1.45 l -0.399,-0.03 0.399,-1.42 v 1.45 -2.5 l 0.48,2.46 -0.48,0.04 v -2.5 l 0.48,2.46 -0.226,-1.16 0.414,1.11 -0.188,0.05 -0.226,-1.16 0.414,1.11 -0.75,0.44 c -1.532,0.97 -5.301,4.73 -9.5,12.11 -3.746,6.47 -7.996,15.62 -12.297,25.89 -6.485,15.44 -13.184,33.43 -20.063,50.22 -3.441,8.41 -6.937,16.53 -10.578,24.02 -3.66,7.51 -7.402,14.37 -11.777,20.52 l 0.004,-0.01 c -2.961,4.11 -6.254,7.94 -10.805,11.3 -4.457,3.3 -10.809,6.21 -18.121,6.19 -5.875,0.04 -11.594,-1.97 -15.863,-4.74 -7.551,-4.96 -11.852,-11.25 -15.817,-18.39 -5.793,-10.77 -10.488,-24.47 -15.242,-42.81 -4.707,-18.3 -9.281,-41.15 -13.836,-69.39 -9.062,-56.27 -18.015,-133.47 -26.984,-222.16 -8.961,-88.68 -17.91,-188.76 -26.852,-290.36 -8.941,-101.55 -17.883,-201.54 -26.812,-289.9 -8.918,-88.33 -17.852,-165.11 -26.672,-219.75 -6.707,-41.7 -13.496,-70.59 -19.594,-87.469 -2.973,-8.41 -5.922,-13.762 -7.351,-15.539 l -0.579,-0.692 1.969,-2.031 -1.644,2.293 -0.325,-0.262 1.969,-2.031 -1.644,2.293 5.918,-8.223 v 9.93 c -2.809,0.051 -5.286,-1.18 -5.918,-1.707 l 5.918,-8.223 v 9.93 -9.019 l 5.488,7.511 c -0.242,0.219 -2.383,1.528 -5.488,1.508 v -9.019 l 5.488,7.511 -0.981,-1.351 1.055,1.289 -0.074,0.062 -0.981,-1.351 1.055,1.289 -0.535,0.551 -1.379,1.75 0.008,-0.008 c -3.153,4.379 -7.309,12.16 -11.481,21.476 -6.332,14.022 -12.988,31.582 -19.765,48.692 -6.828,17.17 -13.641,33.79 -21.399,47.27 -5.308,9.12 -10.965,16.62 -18.109,22.51 -3.574,2.93 -7.57,5.42 -12.008,7.19 -4.426,1.77 -9.301,2.75 -14.121,2.74 -9.707,0 -18.316,-3.79 -25.07,-8.7 -6.84,-4.97 -12.453,-11.16 -17.746,-18.27 h 0.004 c -9.887,-13.38 -18.895,-28.84 -27.493,-41.92 -4.265,-6.52 -8.402,-12.41 -12.113,-16.9 -3.664,-4.5 -7.027,-7.49 -8.637,-8.44 l 0.016,0.01 c -1.406,-0.82 -1.465,-0.66 -1.762,-0.71 -0.25,0 -0.914,0.04 -2.347,0.65 -2.118,0.88 -5.7,3.24 -9.782,7.1 -4.097,3.82 -8.707,9.03 -13.488,15.05 -8.926,11.19 -18.168,23.13 -28.625,33.23 -5.266,5.04 -10.871,9.69 -17.453,13.42 -6.531,3.69 -14.375,6.54 -23.238,6.55 v -40.01" /><path
         id="path20"
         style="fill:#64c4a2;fill-opacity:1;fill-rule:nonzero;stroke:none"
         d="M 3041.05,678.398 H 2783.59 V 2062.02 c 3.73,-5.25 7.76,-9.79 12.44,-13.66 3.58,-2.92 7.57,-5.42 12.01,-7.19 4.4,-1.76 9.25,-2.74 14.04,-2.74 0.03,0 0.05,0 0.08,0 0,0 0.01,0 0.02,0 9.7,0 18.3,3.8 25.05,8.71 6.85,4.96 12.46,11.15 17.76,18.25 v 0.01 c 9.88,13.37 18.89,28.81 27.49,41.9 4.27,6.52 8.41,12.41 12.12,16.91 3.68,4.51 7.05,7.52 8.68,8.49 l -0.02,-0.01 c 1.41,0.83 1.45,0.66 1.73,0.71 0.24,-0.01 0.9,-0.04 2.33,-0.65 2.11,-0.89 5.7,-3.25 9.78,-7.11 4.1,-3.84 8.71,-9.05 13.5,-15.07 v -0.01 c 8.93,-11.17 18.17,-23.11 28.62,-33.2 5.26,-5.05 10.87,-9.69 17.44,-13.42 6.53,-3.69 14.37,-6.55 23.22,-6.56 l 0.06,40 c 0,0 -0.01,0 -0.02,0 -0.18,0 -1.3,0.1 -3.59,1.39 -3.59,1.95 -9.21,6.79 -15.17,13.4 -6.02,6.6 -12.52,14.82 -19.26,23.3 v 0 c -7.39,9.26 -15.01,17.87 -23.88,24.92 -4.45,3.5 -9.26,6.64 -14.73,9.03 -5.44,2.38 -11.64,3.98 -18.27,3.98 -0.01,0 -0.02,0 -0.03,0 -0.08,0 -0.15,0 -0.23,0 -7.92,0 -16.05,-2.53 -22.85,-6.88 l -0.01,-0.01 c -7.31,-4.68 -12.88,-10.52 -18.16,-16.85 -7.82,-9.52 -14.79,-20.43 -21.6,-31.17 -6.76,-10.7 -13.3,-21.22 -19.28,-29.27 l 0.01,0.01 c -3.63,-4.93 -6.95,-8.18 -9.03,-9.64 -0.65,-0.48 -1.16,-0.77 -1.52,-0.95 l -0.24,0.14 c -1.54,0.97 -5.3,4.73 -9.51,12.11 -3.74,6.47 -7.99,15.62 -12.29,25.89 -5.42,12.91 -10.99,27.59 -16.69,41.87 v 324.67 h 257.46 V 678.398" /><path
         id="path22"
         style="fill:#96dbc2;fill-opacity:1;fill-rule:nonzero;stroke:none"
         d="m 2822.08,2038.43 c -4.79,0 -9.64,0.98 -14.04,2.74 -4.44,1.77 -8.43,4.27 -12.01,7.19 -4.68,3.87 -8.71,8.41 -12.44,13.66 v 96.63 c 5.7,-14.28 11.27,-28.96 16.69,-41.87 4.3,-10.27 8.55,-19.42 12.29,-25.89 4.21,-7.38 7.97,-11.14 9.51,-12.11 l 0.24,-0.14 c 0.36,0.18 0.87,0.47 1.52,0.95 2.08,1.46 5.4,4.71 9.03,9.64 l -0.01,-0.01 c 5.98,8.05 12.52,18.57 19.28,29.27 6.81,10.74 13.78,21.65 21.6,31.17 5.28,6.33 10.85,12.17 18.16,16.85 l 0.01,0.01 c 6.8,4.35 14.93,6.88 22.85,6.88 0.08,0 0.15,0 0.23,0 0.01,0 0.02,0 0.03,0 6.63,0 12.83,-1.6 18.27,-3.98 5.47,-2.39 10.28,-5.53 14.73,-9.03 8.87,-7.05 16.49,-15.66 23.88,-24.92 v 0 c 6.74,-8.48 13.24,-16.7 19.26,-23.3 5.96,-6.61 11.58,-11.45 15.17,-13.4 2.29,-1.29 3.41,-1.39 3.59,-1.39 0.01,0 0.02,0 0.02,0 l -0.06,-40 c -8.85,0.01 -16.69,2.87 -23.22,6.56 -6.57,3.73 -12.18,8.37 -17.44,13.42 -10.45,10.09 -19.69,22.03 -28.62,33.2 v 0.01 c -4.79,6.02 -9.4,11.23 -13.5,15.07 -4.08,3.86 -7.67,6.22 -9.78,7.11 -1.43,0.61 -2.09,0.64 -2.33,0.65 -0.28,-0.05 -0.32,0.12 -1.73,-0.71 l 0.02,0.01 c -1.63,-0.97 -5,-3.98 -8.68,-8.49 -3.71,-4.5 -7.85,-10.39 -12.12,-16.91 -8.6,-13.09 -17.61,-28.53 -27.49,-41.9 v -0.01 c -5.3,-7.1 -10.91,-13.29 -17.76,-18.25 -6.75,-4.91 -15.35,-8.71 -25.05,-8.71 -0.01,0 -0.02,0 -0.02,0 -0.03,0 -0.05,0 -0.08,0" /><path
         id="path24"
         style="fill:#a8aaae;fill-opacity:1;fill-rule:nonzero;stroke:none"
         d="m 4740.23,2715.15 h 285.9 V 434.68 h -285.9 v 2280.47" /><path
         id="path26"
         style="fill:#c4c4cd;fill-opacity:1;fill-rule:nonzero;stroke:none"
         d="M 666.211,402.539 H 1631.76 V 58.6719 H 666.211 V 402.539" /><path
         id="path28"
         style="fill:#c4c4cd;fill-opacity:1;fill-rule:nonzero;stroke:none"
         d="m 3488.24,402.539 h 965.55 V 58.6719 H 3488.24 V 402.539" /><path
         id="path30"
         style="fill:#9b969c;fill-opacity:1;fill-rule:nonzero;stroke:none"
         d="m 3626.13,1724.33 c -150.93,0 -273.28,122.35 -273.28,273.32 0,150.94 122.35,273.29 273.28,273.29 150.98,0 273.32,-122.35 273.32,-273.29 0,-150.97 -122.34,-273.32 -273.32,-273.32" /><path
         id="path32"
         style="fill:#9b969c;fill-opacity:1;fill-rule:nonzero;stroke:none"
         d="m 3626.13,887.809 c -150.93,0 -273.28,122.341 -273.28,273.281 0,150.94 122.35,273.32 273.28,273.32 150.98,0 273.32,-122.38 273.32,-273.32 0,-150.94 -122.34,-273.281 -273.32,-273.281" /><path
         id="path34"
         style="fill:#9b969c;fill-opacity:1;fill-rule:nonzero;stroke:none"
         d="m 4490.7,1724.33 c -150.93,0 -273.28,122.35 -273.28,273.32 0,150.94 122.35,273.29 273.28,273.29 150.94,0 273.32,-122.35 273.32,-273.29 0,-150.97 -122.38,-273.32 -273.32,-273.32" /><path
         id="path36"
         style="fill:#9b969c;fill-opacity:1;fill-rule:nonzero;stroke:none"
         d="m 4490.7,887.809 c -150.93,0 -273.28,122.341 -273.28,273.281 0,150.94 122.35,273.32 273.28,273.32 150.94,0 273.32,-122.38 273.32,-273.32 0,-150.94 -122.38,-273.281 -273.32,-273.281" /><path
         id="path38"
         style="fill:#5d476b;fill-opacity:1;fill-rule:nonzero;stroke:none"
         d="M 117.27,461.172 H 5002.73 V 2697.54 H 117.27 Z M 5061.37,343.941 H 58.6289 C 26.25,343.941 0,370.191 0,402.539 V 2756.17 c 0,32.38 26.25,58.63 58.6289,58.63 H 5061.37 c 32.38,0 58.63,-26.25 58.63,-58.63 V 402.539 c 0,-32.348 -26.25,-58.598 -58.63,-58.598" /><path
         id="path40"
         style="fill:#5d476b;fill-opacity:1;fill-rule:nonzero;stroke:none"
         d="M 407.852,734.02 H 2982.42 V 2424.69 H 407.852 Z M 3041.05,616.801 H 349.219 c -32.379,0 -58.629,26.238 -58.629,58.629 v 1807.89 c 0,32.38 26.25,58.63 58.629,58.63 H 3041.05 c 32.39,0 58.64,-26.25 58.64,-58.63 V 675.43 c 0,-32.391 -26.25,-58.629 -58.64,-58.629" /><path
         id="path42"
         style="fill:#1c1b1b;fill-opacity:1;fill-rule:nonzero;stroke:none"
         d="m 3626.17,2212.3 c -118.4,0 -214.69,-96.29 -214.69,-214.68 0,-118.36 96.29,-214.65 214.69,-214.65 118.36,0 214.65,96.29 214.65,214.65 0,118.39 -96.29,214.68 -214.65,214.68 z m 0,-546.6 c -183.04,0 -331.95,148.91 -331.95,331.95 0,183.01 148.91,331.92 331.95,331.92 183.01,0 331.92,-148.91 331.92,-331.92 0,-183.04 -148.91,-331.95 -331.92,-331.95" /><path
         id="path44"
         style="fill:#1c1b1b;fill-opacity:1;fill-rule:nonzero;stroke:none"
         d="m 3626.17,1375.78 c -118.4,0 -214.69,-96.33 -214.69,-214.69 0,-118.36 96.29,-214.649 214.69,-214.649 118.36,0 214.65,96.289 214.65,214.649 0,118.36 -96.29,214.69 -214.65,214.69 z m 0,-546.6 c -183.04,0 -331.95,148.902 -331.95,331.91 0,183.05 148.91,331.92 331.95,331.92 183.01,0 331.92,-148.87 331.92,-331.92 0,-183.008 -148.91,-331.91 -331.92,-331.91" /><path
         id="path46"
         style="fill:#1c1024;fill-opacity:1;fill-rule:nonzero;stroke:none"
         d="m 3626.17,1939.02 c -32.38,0 -58.63,26.25 -58.63,58.63 v 273.29 c 0,32.38 26.25,58.63 58.63,58.63 32.38,0 58.63,-26.25 58.63,-58.63 v -273.29 c -0.03,-32.38 -26.28,-58.63 -58.63,-58.63" /><path
         id="path48"
         style="fill:#1c1b1b;fill-opacity:1;fill-rule:nonzero;stroke:none"
         d="m 3899.45,1102.46 h -273.28 c -32.38,0 -58.63,26.25 -58.63,58.63 0,32.38 26.25,58.63 58.63,58.63 h 273.28 c 32.39,0 58.64,-26.25 58.64,-58.63 0,-32.38 -26.25,-58.63 -58.64,-58.63" /><path
         id="path50"
         style="fill:#1c1b1b;fill-opacity:1;fill-rule:nonzero;stroke:none"
         d="m 4490.7,2212.3 c -118.36,0 -214.65,-96.29 -214.65,-214.68 0,-118.36 96.29,-214.65 214.65,-214.65 118.4,0 214.69,96.29 214.69,214.65 0,118.39 -96.33,214.68 -214.69,214.68 z m 0,-546.6 c -183,0 -331.91,148.91 -331.91,331.95 0,183.01 148.91,331.92 331.91,331.92 183.05,0 331.96,-148.91 331.96,-331.92 0,-183.04 -148.91,-331.95 -331.96,-331.95" /><path
         id="path52"
         style="fill:#1c1b1b;fill-opacity:1;fill-rule:nonzero;stroke:none"
         d="m 4490.7,1375.78 c -118.36,0 -214.65,-96.33 -214.65,-214.69 0,-118.36 96.29,-214.649 214.65,-214.649 118.4,0 214.69,96.289 214.69,214.649 0,118.36 -96.33,214.69 -214.69,214.69 z m 0,-546.6 c -183,0 -331.91,148.902 -331.91,331.91 0,183.05 148.91,331.92 331.91,331.92 183.05,0 331.96,-148.87 331.96,-331.92 0,-183.008 -148.91,-331.91 -331.96,-331.91" /><path
         id="path54"
         style="fill:#1c1b1b;fill-opacity:1;fill-rule:nonzero;stroke:none"
         d="m 4490.7,1666.56 c -32.34,0 -58.59,26.25 -58.59,58.63 v 273.32 c 0,32.35 26.25,58.6 58.59,58.6 32.39,0 58.64,-26.25 58.64,-58.6 v -273.32 c 0,-32.38 -26.25,-58.63 -58.64,-58.63" /><path
         id="path56"
         style="fill:#1c1b1b;fill-opacity:1;fill-rule:nonzero;stroke:none"
         d="m 4500.66,1102.46 h -273.28 c -32.38,0 -58.63,26.25 -58.63,58.63 0,32.38 26.25,58.63 58.63,58.63 h 273.28 c 32.39,0 58.64,-26.25 58.64,-58.63 0,-32.38 -26.25,-58.63 -58.64,-58.63" /><path
         id="path58"
         style="fill:#5d476b;fill-opacity:1;fill-rule:nonzero;stroke:none"
         d="m 724.84,117.262 h 848.28 V 343.941 H 724.84 Z M 1631.76,0 H 666.211 c -32.34,0 -58.59,26.25 -58.59,58.6289 V 402.539 c 0,32.383 26.25,58.633 58.59,58.633 h 965.549 c 32.38,0 58.63,-26.25 58.63,-58.633 V 58.6289 C 1690.39,26.25 1664.14,0 1631.76,0" /><path
         id="path60"
         style="fill:#5d476b;fill-opacity:1;fill-rule:nonzero;stroke:none"
         d="m 3546.88,117.262 h 848.28 V 343.941 H 3546.88 Z M 4453.79,0 h -965.55 c -32.38,0 -58.63,26.25 -58.63,58.6289 V 402.539 c 0,32.383 26.25,58.633 58.63,58.633 h 965.55 c 32.34,0 58.59,-26.25 58.59,-58.633 V 58.6289 C 4512.38,26.25 4486.13,0 4453.79,0" /></g></g></svg>